<svg xmlns="http://www.w3.org/2000/svg" width="15" height="15">
    <path fill="#EFEFEF" fill-rule="evenodd" d="M10.86 14.999H4.139A4.144 4.144 0 0 1 0 10.86V4.138A4.144 4.144 0 0 1 4.139-.001h6.721A4.144 4.144 0 0 1 15 4.138v6.722a4.144 4.144 0 0 1-4.14 4.139zm3.14-11c0-1.548-1.451-3-3-3H4c-1.549 0-3 1.452-3 3v7c0 1.549 1.451 3 3 3h7c1.549 0 3-1.451 3-3v-7zm-2.473.458a.987.987 0 0 1-.689-.285.983.983 0 0 1-.287-.69.978.978 0 0 1 1.666-.691.98.98 0 0 1 0 1.381.987.987 0 0 1-.69.285zM7 10.999c-2.131 0-3-1.869-3-4 0-2.132 1.869-3 4-3 2.131 0 3 1.869 3 4 0 2.131-1.869 3-4 3zm.5-6.034a2.537 2.537 0 0 0-2.534 2.534A2.537 2.537 0 0 0 7.5 10.033a2.537 2.537 0 0 0 2.534-2.534A2.537 2.537 0 0 0 7.5 4.965z"/>
</svg>
