<svg xmlns="http://www.w3.org/2000/svg" width="22" height="20">
    <path fill="#BBB" fill-rule="evenodd" d="M21.967 5.962c-.321-3.457-2.824-5.965-5.956-5.965a5.949 5.949 0 0 0-5.073 2.857C9.873 1.072 8.041-.003 5.988-.003 2.856-.003.353 2.504.032 5.961c-.025.153-.13.957.187 2.267.456 1.891 1.51 3.61 3.047 4.971l7.667 6.803 7.799-6.802c1.537-1.362 2.591-3.081 3.047-4.972.317-1.31.213-2.113.188-2.266zm-1.012 2.077c-.416 1.726-1.382 3.299-2.789 4.546l-7.228 6.304-7.103-6.303c-1.41-1.249-2.375-2.821-2.792-4.548-.3-1.24-.176-1.94-.176-1.945l.006-.042C1.148 3.023 3.299.824 5.988.824c1.983 0 3.73 1.192 4.558 3.11l.39.903.39-.903c.816-1.889 2.654-3.11 4.685-3.11 2.688 0 4.839 2.199 5.12 5.267.001.007.124.708-.176 1.948z"/>
</svg>
