<svg xmlns="http://www.w3.org/2000/svg" width="12" height="15">
    <path fill="#EFEFEF" fill-rule="evenodd" d="M4.522 9.92c-.371 2.065-.825 4.045-2.168 5.079-.414-3.122.609-5.465 1.084-7.954-.81-1.447.098-4.359 1.806-3.642 2.103.884-1.82 5.38.813 5.942 2.75.587 3.873-5.063 2.168-6.9-2.464-2.653-7.172-.061-6.593 3.737.141.929 1.045 1.211.361 2.492C.416 8.303-.054 6.984.006 5.224.104 2.344 2.445.328 4.793.05c2.969-.353 5.756 1.156 6.141 4.121.434 3.345-1.34 6.968-4.515 6.707-.861-.071-1.223-.523-1.897-.958z"/>
</svg>
