<svg xmlns="http://www.w3.org/2000/svg" width="18" height="20">
    <path fill="#BBB" fill-rule="evenodd" d="M14.727 13.22c-.874 0-1.696.353-2.314.993a3.443 3.443 0 0 0-.447.579l-5.655-3.555a3.465 3.465 0 0 0 0-2.504l5.657-3.529c.581.946 1.599 1.576 2.759 1.576C16.532 6.78 18 5.259 18 3.39 18 1.52 16.532 0 14.727 0c-1.804 0-3.273 1.52-3.273 3.39 0 .425.08.831.219 1.207L6.009 8.13c-.585-.923-1.593-1.535-2.736-1.535C1.468 6.595 0 8.116 0 9.985c0 1.869 1.468 3.39 3.273 3.39 1.143 0 2.15-.612 2.736-1.536l5.663 3.561a3.482 3.482 0 0 0-.218 1.21c0 .905.341 1.757.959 2.397.618.64 1.44.993 2.314.993.874 0 1.696-.353 2.314-.993.618-.64.959-1.492.959-2.397a3.43 3.43 0 0 0-.959-2.397 3.196 3.196 0 0 0-2.314-.993z"/>
</svg>
