<svg xmlns="http://www.w3.org/2000/svg" width="21" height="21">
    <path fill="#C8C8C8" fill-rule="evenodd" d="M10.675 0C4.982 0 .35 4.632.35 10.325c0 1.801.471 3.571 1.364 5.127L.018 20.539a.351.351 0 0 0 .421.449l5.554-1.461a10.348 10.348 0 0 0 4.682 1.123C16.369 20.65 21 16.018 21 10.325S16.369 0 10.675 0zm6.443 15.013l-.615.616c-.777.777-1.644 1.171-2.576 1.171-1.257 0-2.612-.718-4.026-2.133L6.333 11.1C5.217 9.984 4.532 8.9 4.295 7.878c-.287-1.242.075-2.379 1.077-3.38l.615-.616a1.325 1.325 0 0 1 1.532-.23c.932.493 1.897 2.108 2.005 2.291.193.338.252.688.169.988a.92.92 0 0 1-.416.544c-.283.236-.615.531-.673.606-.356.524-.315.927.143 1.386l2.787 2.786c.462.463.858.501 1.391.14.07-.055.364-.387.601-.67a.92.92 0 0 1 .818-.452c.231 0 .476.07.71.203.186.11 1.802 1.075 2.295 2.006.269.51.177 1.125-.231 1.533z"/>
</svg>
